<?xml version="1.0" standalone="no"?>
<!DOCTYPE svg PUBLIC "-//W3C//DTD SVG 20010904//EN"
 "http://www.w3.org/TR/2001/REC-SVG-20010904/DTD/svg10.dtd">
<svg version="1.0" xmlns="http://www.w3.org/2000/svg"
 width="512.000000pt" height="512.000000pt" viewBox="0 0 512.000000 512.000000"
 preserveAspectRatio="xMidYMid meet">
<metadata>
Created by potrace 1.16, written by Peter Selinger 2001-2019
</metadata>
<g transform="translate(0.000000,512.000000) scale(0.100000,-0.100000)"
fill="#000000" stroke="none">
<path d="M1297 4120 c-112 -29 -218 -117 -270 -228 -29 -61 -32 -75 -32 -167
0 -92 3 -106 32 -167 19 -40 53 -89 82 -118 49 -49 157 -110 194 -110 16 0 17
-43 17 -770 0 -727 -1 -770 -17 -770 -37 0 -145 -61 -194 -110 -29 -29 -63
-78 -82 -118 -29 -61 -32 -75 -32 -167 0 -92 3 -106 32 -167 41 -88 113 -160
201 -201 61 -29 75 -32 167 -32 92 0 106 3 167 32 88 41 160 113 201 201 29
61 32 75 32 167 0 91 -3 106 -31 166 l-32 66 882 881 881 880 60 -29 c33 -16
68 -29 78 -29 16 0 17 -43 17 -770 0 -745 -1 -770 -19 -770 -37 0 -159 -70
-201 -116 -23 -25 -56 -75 -73 -112 -29 -61 -32 -75 -32 -167 0 -92 3 -106 32
-167 41 -88 113 -160 201 -201 61 -29 75 -32 167 -32 92 0 106 3 167 32 88 41
160 113 201 201 29 61 32 75 32 167 0 92 -3 106 -32 167 -19 40 -53 89 -82
118 -49 49 -157 110 -193 110 -17 0 -18 43 -18 770 0 727 1 770 18 770 36 0
144 61 193 110 29 29 63 78 82 118 29 61 32 75 32 167 0 92 -3 106 -32 167
-41 88 -113 160 -201 201 -61 29 -75 32 -167 32 -92 0 -106 -3 -167 -32 -88
-41 -160 -113 -201 -201 -29 -61 -32 -75 -32 -167 0 -91 3 -106 31 -166 l32
-66 -882 -881 -881 -880 -60 29 c-33 16 -68 29 -77 29 -17 0 -18 43 -18 770 0
745 1 770 19 770 37 0 159 70 201 116 23 25 56 75 73 112 29 61 32 75 32 167
0 92 -3 106 -32 167 -67 141 -194 227 -346 234 -45 2 -99 -1 -120 -6z m185
-152 c22 -6 59 -29 82 -50 115 -100 117 -281 5 -382 -53 -48 -100 -66 -175
-66 -81 0 -141 27 -192 86 -85 96 -82 253 6 348 62 66 178 93 274 64z m2348
-9 c60 -27 98 -64 126 -124 44 -92 29 -204 -38 -279 -51 -59 -111 -86 -192
-86 -75 0 -122 18 -175 66 -80 72 -106 201 -60 299 25 53 94 117 141 132 57
18 148 15 198 -8z m-2325 -2330 c52 -24 108 -83 130 -135 22 -54 19 -155 -6
-209 -26 -56 -95 -117 -147 -133 -96 -29 -212 -2 -274 64 -61 66 -84 173 -56
266 15 51 77 120 130 146 60 29 162 29 223 1z m2330 0 c56 -26 117 -95 133
-147 28 -93 5 -200 -56 -266 -62 -66 -178 -93 -274 -64 -52 16 -121 77 -147
133 -28 60 -29 159 -1 218 25 53 71 100 125 126 56 28 160 28 220 0z"/>
</g>
</svg>
